<svg width="159" height="102" viewBox="0 0 159 102" fill="none" xmlns="http://www.w3.org/2000/svg">
<path d="M31.38 83.76C31.38 83.8533 31.2773 83.9467 31.072 84.04C30.8853 84.1333 30.708 84.18 30.54 84.18C29.308 84.1987 28.1413 84.2453 27.04 84.32C25.9387 84.3947 24.8653 84.488 23.82 84.6C23.6147 84.6187 23.428 84.5533 23.26 84.404C23.1107 84.2547 23.0173 84.0773 22.98 83.872C22.9427 83.6853 22.952 83.4987 23.008 83.312C23.0827 83.1067 23.2133 82.976 23.4 82.92C24.464 82.7147 25.612 82.556 26.844 82.444C28.076 82.332 29.308 82.3507 30.54 82.5C30.6147 82.5187 30.708 82.5653 30.82 82.64C30.932 82.696 31.0347 82.78 31.128 82.892C31.2213 82.9853 31.296 83.1067 31.352 83.256C31.408 83.4053 31.4173 83.5733 31.38 83.76ZM42.8073 77.572C42.7326 77.6653 42.5926 77.74 42.3873 77.796C42.2006 77.8333 42.0046 77.7773 41.7993 77.628C41.6499 77.516 41.4726 77.404 41.2673 77.292C41.0619 77.1613 40.8379 77.04 40.5953 76.928C40.3526 76.816 40.1099 76.7227 39.8673 76.648C39.6246 76.5733 39.3913 76.536 39.1673 76.536C38.8873 76.536 38.5886 76.6013 38.2713 76.732C37.9726 76.8627 37.7113 77.0493 37.4873 77.292C37.0579 77.7587 36.8993 78.216 37.0113 78.664C37.1419 79.0933 37.4686 79.4947 37.9913 79.868C38.3273 80.1107 38.6913 80.3627 39.0833 80.624C39.4753 80.8667 39.8579 81.1093 40.2313 81.352C40.6233 81.5947 40.9873 81.828 41.3233 82.052C41.6779 82.276 41.9859 82.472 42.2473 82.64C42.5833 82.864 42.9006 83.1067 43.1993 83.368C43.4979 83.6293 43.7593 83.928 43.9833 84.264C44.2073 84.5813 44.3846 84.9453 44.5153 85.356C44.6459 85.7667 44.7113 86.2333 44.7113 86.756C44.5806 87.7827 44.1699 88.604 43.4793 89.22C42.8073 89.8173 42.0233 90.2 41.1273 90.368C40.3433 90.5173 39.5686 90.4893 38.8033 90.284C38.0566 90.0787 37.4219 89.6867 36.8993 89.108C36.7686 88.9587 36.6566 88.7533 36.5633 88.492C36.4699 88.2307 36.4606 88.044 36.5353 87.932C36.6473 87.764 36.8433 87.652 37.1233 87.596C37.4033 87.5213 37.6179 87.5307 37.7673 87.624C38.1966 88.016 38.7006 88.3053 39.2793 88.492C39.8579 88.66 40.4646 88.6693 41.0993 88.52C41.5846 88.408 41.9766 88.2027 42.2753 87.904C42.5739 87.5867 42.7606 87.232 42.8353 86.84C42.9286 86.4293 42.8726 86.0093 42.6673 85.58C42.4806 85.132 42.1353 84.7307 41.6313 84.376C40.8659 83.7973 40.0446 83.256 39.1673 82.752C38.3086 82.248 37.4313 81.6693 36.5353 81.016C36.1059 80.6427 35.7886 80.232 35.5833 79.784C35.3966 79.336 35.3033 78.8973 35.3033 78.468C35.3033 78.02 35.3966 77.6 35.5833 77.208C35.7699 76.7973 36.0313 76.4333 36.3673 76.116C36.7033 75.78 37.0953 75.5093 37.5433 75.304C37.9913 75.0987 38.4859 74.9773 39.0273 74.94C39.7739 74.9027 40.4926 75.0613 41.1833 75.416C41.8739 75.752 42.4339 76.172 42.8633 76.676C42.9566 76.788 42.9939 76.928 42.9753 77.096C42.9753 77.264 42.9193 77.4227 42.8073 77.572ZM53.2349 89.556C53.2162 89.7613 53.1509 89.9573 53.0389 90.144C52.9455 90.312 52.7962 90.3867 52.5909 90.368C52.2735 90.3493 51.9935 90.228 51.7509 90.004C51.5269 89.78 51.4149 89.5933 51.4149 89.444C51.4335 87.82 51.3775 86.168 51.2469 84.488C51.1349 82.7893 50.9482 81.1 50.6869 79.42C50.6869 79.3453 50.7055 79.2613 50.7429 79.168C50.7802 79.0933 50.8269 79.0093 50.8829 78.916C50.9389 78.804 51.0322 78.7013 51.1629 78.608C51.2935 78.552 51.4335 78.5613 51.5829 78.636C51.7509 78.7107 51.9095 78.8227 52.0589 78.972C52.2082 79.1213 52.3389 79.2893 52.4509 79.476C52.5629 79.6627 52.6469 79.84 52.7029 80.008C52.7589 80.3813 52.8149 80.792 52.8709 81.24C52.9269 81.688 52.9735 82.1547 53.0109 82.64C53.4589 82.3973 53.8882 82.1267 54.2989 81.828C54.7095 81.5293 55.0642 81.2027 55.3629 80.848C55.6802 80.4933 55.9229 80.1293 56.0909 79.756C56.2589 79.364 56.3149 78.9627 56.2589 78.552C56.2215 78.2347 56.0815 77.9453 55.8389 77.684C55.5962 77.4227 55.2229 77.2267 54.7189 77.096C53.5615 76.8347 52.5255 76.8253 51.6109 77.068C50.6962 77.292 49.8189 77.6747 48.9789 78.216C48.7362 78.4027 48.5122 78.5147 48.3069 78.552C48.1015 78.5893 47.9242 78.58 47.7749 78.524C47.6255 78.468 47.5135 78.384 47.4389 78.272C47.3642 78.16 47.3269 78.048 47.3269 77.936C47.3642 77.5067 47.5695 77.124 47.9429 76.788C48.3349 76.4333 48.7455 76.1347 49.1749 75.892C49.7349 75.612 50.4255 75.3787 51.2469 75.192C52.0682 75.0053 52.8895 74.94 53.7109 74.996C54.5509 75.0333 55.3349 75.2293 56.0629 75.584C56.7909 75.9387 57.3509 76.508 57.7429 77.292C58.0975 78.2253 58.1722 79.0653 57.9669 79.812C57.7802 80.5587 57.4349 81.24 56.9309 81.856C56.4269 82.472 55.8295 83.0413 55.1389 83.564C54.4482 84.068 53.7949 84.5347 53.1789 84.964C53.2162 85.7853 53.2349 86.588 53.2349 87.372C53.2535 88.156 53.2535 88.884 53.2349 89.556ZM63.1819 89.528C63.0885 89.8453 62.9672 90.1347 62.8179 90.396C62.6685 90.6387 62.5099 90.7787 62.3419 90.816C61.9872 90.9093 61.7165 90.8533 61.5299 90.648C61.3432 90.4427 61.2685 90.1813 61.3059 89.864C61.4552 88.744 61.6979 87.568 62.0339 86.336C62.3699 85.0853 62.7619 83.844 63.2099 82.612C63.6579 81.3613 64.1432 80.1573 64.6659 79C65.2072 77.824 65.7579 76.76 66.3179 75.808C66.4112 75.6587 66.5139 75.5747 66.6259 75.556C66.7565 75.5187 66.8685 75.5187 66.9619 75.556C67.0552 75.4813 67.1672 75.416 67.2979 75.36C67.4285 75.304 67.5592 75.276 67.6899 75.276C67.7459 75.276 67.8019 75.2853 67.8579 75.304C67.9325 75.3227 68.0072 75.3787 68.0819 75.472C68.1565 75.5653 68.2405 75.7053 68.3339 75.892C68.4459 76.06 68.5765 76.312 68.7259 76.648C68.9872 77.6 69.2859 78.58 69.6219 79.588C69.9765 80.596 70.3405 81.604 70.7139 82.612C70.7699 82.5933 70.8165 82.584 70.8539 82.584C70.9099 82.5653 70.9659 82.5467 71.0219 82.528C71.2272 82.5093 71.4605 82.5187 71.7219 82.556C71.9832 82.5933 72.1605 82.724 72.2539 82.948C72.3659 83.228 72.3472 83.4707 72.1979 83.676C72.0485 83.8813 71.7779 84.0867 71.3859 84.292C71.6285 84.8893 71.8712 85.4773 72.1139 86.056C72.3565 86.616 72.6085 87.1667 72.8699 87.708C72.8885 87.8013 72.9165 87.9507 72.9539 88.156C72.9912 88.3427 73.0099 88.5387 73.0099 88.744C73.0285 88.9307 73.0192 89.108 72.9819 89.276C72.9445 89.444 72.8699 89.556 72.7579 89.612C72.6272 89.668 72.4872 89.6587 72.3379 89.584C72.2072 89.5093 72.0765 89.416 71.9459 89.304C71.8152 89.1733 71.6939 89.0427 71.5819 88.912C71.4885 88.7627 71.4139 88.632 71.3579 88.52C71.0405 87.904 70.7325 87.288 70.4339 86.672C70.1539 86.0373 69.8832 85.4027 69.6219 84.768C68.8379 84.9173 67.9792 85.048 67.0459 85.16C66.1312 85.272 65.2259 85.3467 64.3299 85.384C64.1245 86.0933 63.9192 86.7933 63.7139 87.484C63.5272 88.156 63.3499 88.8373 63.1819 89.528ZM67.1579 77.768C66.2992 79.6907 65.5525 81.6133 64.9179 83.536C66.1685 83.4987 67.5032 83.34 68.9219 83.06C68.2499 81.3613 67.6619 79.5973 67.1579 77.768ZM87.5408 78.048C87.4101 79.6347 87.2514 81.2587 87.0648 82.92C86.8968 84.5627 86.6634 86.112 86.3648 87.568C86.2901 87.9227 86.1874 88.1747 86.0568 88.324C85.9261 88.4733 85.7394 88.576 85.4968 88.632C85.2914 88.6693 85.0021 88.604 84.6288 88.436C84.2741 88.268 83.9754 88.0253 83.7328 87.708C83.4154 87.2787 83.0701 86.812 82.6968 86.308C82.3421 85.7853 81.9501 85.2627 81.5208 84.74C81.1101 84.1987 80.6714 83.6667 80.2048 83.144C79.7568 82.6213 79.2808 82.136 78.7768 81.688C78.7208 82.92 78.6741 84.1427 78.6368 85.356C78.5994 86.5507 78.5994 87.7547 78.6368 88.968C78.6368 89.136 78.4874 89.22 78.1888 89.22C77.8341 89.22 77.5448 89.0427 77.3208 88.688C77.0968 88.3147 76.9661 87.9413 76.9288 87.568C76.8728 87.1947 76.8448 86.6627 76.8448 85.972C76.8448 85.2627 76.8541 84.5253 76.8728 83.76C76.9101 82.9947 76.9474 82.2573 76.9848 81.548C77.0221 80.8387 77.0594 80.2787 77.0968 79.868C77.1341 79.42 77.2368 79.0933 77.4048 78.888C77.5914 78.6827 77.7688 78.5893 77.9368 78.608C78.3101 78.6453 78.5528 78.7573 78.6648 78.944C78.7954 79.112 78.8701 79.3267 78.8888 79.588C79.5608 80.0733 80.1768 80.596 80.7368 81.156C81.3154 81.716 81.8381 82.2853 82.3048 82.864C82.7901 83.4427 83.2288 84.0213 83.6208 84.6C84.0314 85.16 84.4141 85.6733 84.7688 86.14C84.9928 85.02 85.1701 83.7693 85.3008 82.388C85.4501 81.0067 85.5994 79.56 85.7488 78.048C85.7301 77.8613 85.8421 77.684 86.0848 77.516C86.3274 77.3293 86.5514 77.2453 86.7568 77.264C87.2794 77.3013 87.5408 77.5627 87.5408 78.048ZM94.875 87.12C94.8937 87.1947 94.903 87.3067 94.903 87.456C94.903 87.5867 94.875 87.7267 94.819 87.876C94.763 88.0067 94.679 88.128 94.567 88.24C94.4737 88.3333 94.3337 88.38 94.147 88.38C93.7364 88.1187 93.391 87.7733 93.111 87.344C92.9617 86.784 92.8217 86.14 92.691 85.412C92.579 84.684 92.4857 83.928 92.411 83.144C92.3364 82.3413 92.2804 81.5293 92.243 80.708C92.2244 79.8867 92.2244 79.0933 92.243 78.328C92.243 78.1973 92.2524 78.0293 92.271 77.824C92.3084 77.6187 92.3644 77.4227 92.439 77.236C92.5137 77.0307 92.607 76.8627 92.719 76.732C92.831 76.5827 92.9897 76.508 93.195 76.508C93.4377 76.508 93.6337 76.5827 93.783 76.732C93.9324 76.8813 94.007 77.124 94.007 77.46C93.9884 78.2067 93.9884 79.0093 94.007 79.868C94.0444 80.708 94.1004 81.5573 94.175 82.416C94.2497 83.2747 94.343 84.1147 94.455 84.936C94.5857 85.7387 94.7257 86.4667 94.875 87.12ZM106.83 77.572C106.755 77.6653 106.615 77.74 106.41 77.796C106.223 77.8333 106.027 77.7773 105.822 77.628C105.673 77.516 105.495 77.404 105.29 77.292C105.085 77.1613 104.861 77.04 104.618 76.928C104.375 76.816 104.133 76.7227 103.89 76.648C103.647 76.5733 103.414 76.536 103.19 76.536C102.91 76.536 102.611 76.6013 102.294 76.732C101.995 76.8627 101.734 77.0493 101.51 77.292C101.081 77.7587 100.922 78.216 101.034 78.664C101.165 79.0933 101.491 79.4947 102.014 79.868C102.35 80.1107 102.714 80.3627 103.106 80.624C103.498 80.8667 103.881 81.1093 104.254 81.352C104.646 81.5947 105.01 81.828 105.346 82.052C105.701 82.276 106.009 82.472 106.27 82.64C106.606 82.864 106.923 83.1067 107.222 83.368C107.521 83.6293 107.782 83.928 108.006 84.264C108.23 84.5813 108.407 84.9453 108.538 85.356C108.669 85.7667 108.734 86.2333 108.734 86.756C108.603 87.7827 108.193 88.604 107.502 89.22C106.83 89.8173 106.046 90.2 105.15 90.368C104.366 90.5173 103.591 90.4893 102.826 90.284C102.079 90.0787 101.445 89.6867 100.922 89.108C100.791 88.9587 100.679 88.7533 100.586 88.492C100.493 88.2307 100.483 88.044 100.558 87.932C100.67 87.764 100.866 87.652 101.146 87.596C101.426 87.5213 101.641 87.5307 101.79 87.624C102.219 88.016 102.723 88.3053 103.302 88.492C103.881 88.66 104.487 88.6693 105.122 88.52C105.607 88.408 105.999 88.2027 106.298 87.904C106.597 87.5867 106.783 87.232 106.858 86.84C106.951 86.4293 106.895 86.0093 106.69 85.58C106.503 85.132 106.158 84.7307 105.654 84.376C104.889 83.7973 104.067 83.256 103.19 82.752C102.331 82.248 101.454 81.6693 100.558 81.016C100.129 80.6427 99.8113 80.232 99.6059 79.784C99.4193 79.336 99.3259 78.8973 99.3259 78.468C99.3259 78.02 99.4193 77.6 99.6059 77.208C99.7926 76.7973 100.054 76.4333 100.39 76.116C100.726 75.78 101.118 75.5093 101.566 75.304C102.014 75.0987 102.509 74.9773 103.05 74.94C103.797 74.9027 104.515 75.0613 105.206 75.416C105.897 75.752 106.457 76.172 106.886 76.676C106.979 76.788 107.017 76.928 106.998 77.096C106.998 77.264 106.942 77.4227 106.83 77.572ZM122.326 78.356C122.587 79.868 122.783 81.38 122.914 82.892C123.044 84.3853 123.147 85.8787 123.222 87.372C123.24 87.54 123.222 87.6893 123.166 87.82C123.11 87.932 123.035 88.0347 122.942 88.128C122.867 88.2213 122.783 88.296 122.69 88.352C122.615 88.408 122.55 88.436 122.494 88.436C122.288 88.436 122.083 88.3427 121.878 88.156C121.691 87.9507 121.579 87.6893 121.542 87.372C121.486 86.6627 121.43 85.9533 121.374 85.244C121.318 84.5347 121.252 83.8253 121.178 83.116C119.218 83.6573 117.146 84.1333 114.962 84.544C115.036 84.9547 115.111 85.3653 115.186 85.776C115.26 86.1867 115.344 86.5973 115.438 87.008C115.456 87.0827 115.466 87.204 115.466 87.372C115.484 87.54 115.475 87.7173 115.438 87.904C115.419 88.0907 115.363 88.268 115.27 88.436C115.195 88.5853 115.074 88.6973 114.906 88.772C114.756 88.7907 114.598 88.744 114.43 88.632C114.262 88.52 114.15 88.408 114.094 88.296C113.87 87.7173 113.655 87.0267 113.45 86.224C113.263 85.4213 113.095 84.5813 112.946 83.704C112.815 82.808 112.722 81.9027 112.666 80.988C112.61 80.0733 112.6 79.196 112.638 78.356C112.675 78.076 112.778 77.88 112.946 77.768C113.132 77.6373 113.3 77.572 113.45 77.572C113.618 77.572 113.758 77.628 113.87 77.74C114 77.852 114.103 77.992 114.178 78.16C114.252 78.328 114.308 78.496 114.346 78.664C114.383 78.832 114.402 78.972 114.402 79.084C114.42 79.6813 114.448 80.2693 114.486 80.848C114.523 81.4267 114.588 82.0053 114.682 82.584C115.634 82.4533 116.67 82.276 117.79 82.052C118.91 81.8093 119.964 81.5387 120.954 81.24C120.916 80.8107 120.87 80.3813 120.814 79.952C120.758 79.504 120.702 79.0653 120.646 78.636C120.646 78.3187 120.739 78.0387 120.926 77.796C121.131 77.5533 121.336 77.432 121.542 77.432C121.691 77.432 121.84 77.5067 121.99 77.656C122.158 77.8053 122.27 78.0387 122.326 78.356ZM135.49 83.76C135.49 83.8533 135.387 83.9467 135.182 84.04C134.995 84.1333 134.818 84.18 134.65 84.18C133.418 84.1987 132.251 84.2453 131.15 84.32C130.048 84.3947 128.975 84.488 127.93 84.6C127.724 84.6187 127.538 84.5533 127.37 84.404C127.22 84.2547 127.127 84.0773 127.09 83.872C127.052 83.6853 127.062 83.4987 127.118 83.312C127.192 83.1067 127.323 82.976 127.51 82.92C128.574 82.7147 129.722 82.556 130.954 82.444C132.186 82.332 133.418 82.3507 134.65 82.5C134.724 82.5187 134.818 82.5653 134.93 82.64C135.042 82.696 135.144 82.78 135.238 82.892C135.331 82.9853 135.406 83.1067 135.462 83.256C135.518 83.4053 135.527 83.5733 135.49 83.76Z" fill="white"/>
<path d="M2.8 68V16.55H12.39L16.52 43.22L16.87 45.95H17.01L17.36 43.22L21.49 16.55H31.08V68H24.08V33.49H23.66L23.38 35.66L18.9 68H14.98L10.5 35.66L10.22 33.49H9.8V68H2.8ZM38.2813 68L46.0513 16.55H55.2913L63.0613 68H55.7113L54.3113 57.5H47.0313L45.6313 68H38.2813ZM48.0813 49.52H53.2613L51.0913 32.23L50.8813 29.5H50.4613L50.2513 32.23L48.0813 49.52ZM70.2133 68V16.55H79.8033L83.9333 43.22L84.2833 45.95H84.4233L84.7733 43.22L88.9033 16.55H98.4933V68H91.4933V33.49H91.0733L90.7933 35.66L86.3133 68H82.3933L77.9133 35.66L77.6333 33.49H77.2133V68H70.2133ZM107.27 68V16.55H114.97C117.583 16.55 119.835 17.0167 121.725 17.95C123.638 18.86 125.108 20.295 126.135 22.255C127.185 24.215 127.71 26.7467 127.71 29.85C127.71 32.3233 127.383 34.4817 126.73 36.325C126.1 38.1683 124.863 39.6733 123.02 40.84C124.886 41.8667 126.228 43.5 127.045 45.74C127.861 47.9567 128.27 50.5233 128.27 53.44C128.27 56.31 127.803 58.8417 126.87 61.035C125.96 63.2283 124.606 64.9433 122.81 66.18C121.036 67.3933 118.843 68 116.23 68H107.27ZM114.83 60.51C117.116 60.51 118.621 59.8333 119.345 58.48C120.068 57.1033 120.43 55.1433 120.43 52.6C120.43 50.01 120.068 48.05 119.345 46.72C118.621 45.3667 117.116 44.69 114.83 44.69V60.51ZM114.83 37.76C116.953 37.76 118.411 37.1767 119.205 36.01C120.021 34.8433 120.43 33.1167 120.43 30.83C120.43 28.52 120.01 26.8167 119.17 25.72C118.353 24.6 116.906 24.04 114.83 24.04V37.76ZM145.648 68.56C143.548 68.56 141.739 68.07 140.223 67.09C138.729 66.11 137.574 64.78 136.758 63.1C135.964 61.42 135.568 59.53 135.568 57.43V27.12C135.568 24.9967 135.964 23.1067 136.758 21.45C137.574 19.77 138.729 18.44 140.223 17.46C141.739 16.48 143.548 15.99 145.648 15.99C147.748 15.99 149.544 16.48 151.038 17.46C152.554 18.44 153.709 19.77 154.503 21.45C155.319 23.13 155.728 25.02 155.728 27.12V57.43C155.728 59.53 155.319 61.42 154.503 63.1C153.709 64.78 152.554 66.11 151.038 67.09C149.544 68.07 147.748 68.56 145.648 68.56ZM145.648 61.21C146.581 61.21 147.234 60.825 147.608 60.055C147.981 59.2617 148.168 58.3867 148.168 57.43V27.12C148.168 26.1633 147.969 25.3 147.573 24.53C147.176 23.7367 146.534 23.34 145.648 23.34C144.784 23.34 144.143 23.7367 143.723 24.53C143.326 25.3 143.128 26.1633 143.128 27.12V57.43C143.128 58.3867 143.326 59.2617 143.723 60.055C144.119 60.825 144.761 61.21 145.648 61.21Z" fill="white"/>
</svg>
