<svg width="159" height="103" viewBox="0 0 159 103" fill="none" xmlns="http://www.w3.org/2000/svg">
<path d="M29.38 84.76C29.38 84.8533 29.2773 84.9467 29.072 85.04C28.8853 85.1333 28.708 85.18 28.54 85.18C27.308 85.1987 26.1413 85.2453 25.04 85.32C23.9387 85.3947 22.8653 85.488 21.82 85.6C21.6147 85.6187 21.428 85.5533 21.26 85.404C21.1107 85.2547 21.0173 85.0773 20.98 84.872C20.9427 84.6853 20.952 84.4987 21.008 84.312C21.0827 84.1067 21.2133 83.976 21.4 83.92C22.464 83.7147 23.612 83.556 24.844 83.444C26.076 83.332 27.308 83.3507 28.54 83.5C28.6147 83.5187 28.708 83.5653 28.82 83.64C28.932 83.696 29.0347 83.78 29.128 83.892C29.2213 83.9853 29.296 84.1067 29.352 84.256C29.408 84.4053 29.4173 84.5733 29.38 84.76ZM40.8073 78.572C40.7326 78.6653 40.5926 78.74 40.3873 78.796C40.2006 78.8333 40.0046 78.7773 39.7993 78.628C39.6499 78.516 39.4726 78.404 39.2673 78.292C39.0619 78.1613 38.8379 78.04 38.5953 77.928C38.3526 77.816 38.1099 77.7227 37.8673 77.648C37.6246 77.5733 37.3913 77.536 37.1673 77.536C36.8873 77.536 36.5886 77.6013 36.2713 77.732C35.9726 77.8627 35.7113 78.0493 35.4873 78.292C35.0579 78.7587 34.8993 79.216 35.0113 79.664C35.1419 80.0933 35.4686 80.4947 35.9913 80.868C36.3273 81.1107 36.6913 81.3627 37.0833 81.624C37.4753 81.8667 37.8579 82.1093 38.2313 82.352C38.6233 82.5947 38.9873 82.828 39.3233 83.052C39.6779 83.276 39.9859 83.472 40.2473 83.64C40.5833 83.864 40.9006 84.1067 41.1993 84.368C41.4979 84.6293 41.7593 84.928 41.9833 85.264C42.2073 85.5813 42.3846 85.9453 42.5153 86.356C42.6459 86.7667 42.7113 87.2333 42.7113 87.756C42.5806 88.7827 42.1699 89.604 41.4793 90.22C40.8073 90.8173 40.0233 91.2 39.1273 91.368C38.3433 91.5173 37.5686 91.4893 36.8033 91.284C36.0566 91.0787 35.4219 90.6867 34.8993 90.108C34.7686 89.9587 34.6566 89.7533 34.5633 89.492C34.4699 89.2307 34.4606 89.044 34.5353 88.932C34.6473 88.764 34.8433 88.652 35.1233 88.596C35.4033 88.5213 35.6179 88.5307 35.7673 88.624C36.1966 89.016 36.7006 89.3053 37.2793 89.492C37.8579 89.66 38.4646 89.6693 39.0993 89.52C39.5846 89.408 39.9766 89.2027 40.2753 88.904C40.5739 88.5867 40.7606 88.232 40.8353 87.84C40.9286 87.4293 40.8726 87.0093 40.6673 86.58C40.4806 86.132 40.1353 85.7307 39.6313 85.376C38.8659 84.7973 38.0446 84.256 37.1673 83.752C36.3086 83.248 35.4313 82.6693 34.5353 82.016C34.1059 81.6427 33.7886 81.232 33.5833 80.784C33.3966 80.336 33.3033 79.8973 33.3033 79.468C33.3033 79.02 33.3966 78.6 33.5833 78.208C33.7699 77.7973 34.0313 77.4333 34.3673 77.116C34.7033 76.78 35.0953 76.5093 35.5433 76.304C35.9913 76.0987 36.4859 75.9773 37.0273 75.94C37.7739 75.9027 38.4926 76.0613 39.1833 76.416C39.8739 76.752 40.4339 77.172 40.8633 77.676C40.9566 77.788 40.9939 77.928 40.9753 78.096C40.9753 78.264 40.9193 78.4227 40.8073 78.572ZM51.2349 90.556C51.2162 90.7613 51.1509 90.9573 51.0389 91.144C50.9455 91.312 50.7962 91.3867 50.5909 91.368C50.2735 91.3493 49.9935 91.228 49.7509 91.004C49.5269 90.78 49.4149 90.5933 49.4149 90.444C49.4335 88.82 49.3775 87.168 49.2469 85.488C49.1349 83.7893 48.9482 82.1 48.6869 80.42C48.6869 80.3453 48.7055 80.2613 48.7429 80.168C48.7802 80.0933 48.8269 80.0093 48.8829 79.916C48.9389 79.804 49.0322 79.7013 49.1629 79.608C49.2935 79.552 49.4335 79.5613 49.5829 79.636C49.7509 79.7107 49.9095 79.8227 50.0589 79.972C50.2082 80.1213 50.3389 80.2893 50.4509 80.476C50.5629 80.6627 50.6469 80.84 50.7029 81.008C50.7589 81.3813 50.8149 81.792 50.8709 82.24C50.9269 82.688 50.9735 83.1547 51.0109 83.64C51.4589 83.3973 51.8882 83.1267 52.2989 82.828C52.7095 82.5293 53.0642 82.2027 53.3629 81.848C53.6802 81.4933 53.9229 81.1293 54.0909 80.756C54.2589 80.364 54.3149 79.9627 54.2589 79.552C54.2215 79.2347 54.0815 78.9453 53.8389 78.684C53.5962 78.4227 53.2229 78.2267 52.7189 78.096C51.5615 77.8347 50.5255 77.8253 49.6109 78.068C48.6962 78.292 47.8189 78.6747 46.9789 79.216C46.7362 79.4027 46.5122 79.5147 46.3069 79.552C46.1015 79.5893 45.9242 79.58 45.7749 79.524C45.6255 79.468 45.5135 79.384 45.4389 79.272C45.3642 79.16 45.3269 79.048 45.3269 78.936C45.3642 78.5067 45.5695 78.124 45.9429 77.788C46.3349 77.4333 46.7455 77.1347 47.1749 76.892C47.7349 76.612 48.4255 76.3787 49.2469 76.192C50.0682 76.0053 50.8895 75.94 51.7109 75.996C52.5509 76.0333 53.3349 76.2293 54.0629 76.584C54.7909 76.9387 55.3509 77.508 55.7429 78.292C56.0975 79.2253 56.1722 80.0653 55.9669 80.812C55.7802 81.5587 55.4349 82.24 54.9309 82.856C54.4269 83.472 53.8295 84.0413 53.1389 84.564C52.4482 85.068 51.7949 85.5347 51.1789 85.964C51.2162 86.7853 51.2349 87.588 51.2349 88.372C51.2535 89.156 51.2535 89.884 51.2349 90.556ZM61.1819 90.528C61.0885 90.8453 60.9672 91.1347 60.8179 91.396C60.6685 91.6387 60.5099 91.7787 60.3419 91.816C59.9872 91.9093 59.7165 91.8533 59.5299 91.648C59.3432 91.4427 59.2685 91.1813 59.3059 90.864C59.4552 89.744 59.6979 88.568 60.0339 87.336C60.3699 86.0853 60.7619 84.844 61.2099 83.612C61.6579 82.3613 62.1432 81.1573 62.6659 80C63.2072 78.824 63.7579 77.76 64.3179 76.808C64.4112 76.6587 64.5139 76.5747 64.6259 76.556C64.7565 76.5187 64.8685 76.5187 64.9619 76.556C65.0552 76.4813 65.1672 76.416 65.2979 76.36C65.4285 76.304 65.5592 76.276 65.6899 76.276C65.7459 76.276 65.8019 76.2853 65.8579 76.304C65.9325 76.3227 66.0072 76.3787 66.0819 76.472C66.1565 76.5653 66.2405 76.7053 66.3339 76.892C66.4459 77.06 66.5765 77.312 66.7259 77.648C66.9872 78.6 67.2859 79.58 67.6219 80.588C67.9765 81.596 68.3405 82.604 68.7139 83.612C68.7699 83.5933 68.8165 83.584 68.8539 83.584C68.9099 83.5653 68.9659 83.5467 69.0219 83.528C69.2272 83.5093 69.4605 83.5187 69.7219 83.556C69.9832 83.5933 70.1605 83.724 70.2539 83.948C70.3659 84.228 70.3472 84.4707 70.1979 84.676C70.0485 84.8813 69.7779 85.0867 69.3859 85.292C69.6285 85.8893 69.8712 86.4773 70.1139 87.056C70.3565 87.616 70.6085 88.1667 70.8699 88.708C70.8885 88.8013 70.9165 88.9507 70.9539 89.156C70.9912 89.3427 71.0099 89.5387 71.0099 89.744C71.0285 89.9307 71.0192 90.108 70.9819 90.276C70.9445 90.444 70.8699 90.556 70.7579 90.612C70.6272 90.668 70.4872 90.6587 70.3379 90.584C70.2072 90.5093 70.0765 90.416 69.9459 90.304C69.8152 90.1733 69.6939 90.0427 69.5819 89.912C69.4885 89.7627 69.4139 89.632 69.3579 89.52C69.0405 88.904 68.7325 88.288 68.4339 87.672C68.1539 87.0373 67.8832 86.4027 67.6219 85.768C66.8379 85.9173 65.9792 86.048 65.0459 86.16C64.1312 86.272 63.2259 86.3467 62.3299 86.384C62.1245 87.0933 61.9192 87.7933 61.7139 88.484C61.5272 89.156 61.3499 89.8373 61.1819 90.528ZM65.1579 78.768C64.2992 80.6907 63.5525 82.6133 62.9179 84.536C64.1685 84.4987 65.5032 84.34 66.9219 84.06C66.2499 82.3613 65.6619 80.5973 65.1579 78.768ZM85.5408 79.048C85.4101 80.6347 85.2514 82.2587 85.0648 83.92C84.8968 85.5627 84.6634 87.112 84.3648 88.568C84.2901 88.9227 84.1874 89.1747 84.0568 89.324C83.9261 89.4733 83.7394 89.576 83.4968 89.632C83.2914 89.6693 83.0021 89.604 82.6288 89.436C82.2741 89.268 81.9754 89.0253 81.7328 88.708C81.4154 88.2787 81.0701 87.812 80.6968 87.308C80.3421 86.7853 79.9501 86.2627 79.5208 85.74C79.1101 85.1987 78.6714 84.6667 78.2048 84.144C77.7568 83.6213 77.2808 83.136 76.7768 82.688C76.7208 83.92 76.6741 85.1427 76.6368 86.356C76.5994 87.5507 76.5994 88.7547 76.6368 89.968C76.6368 90.136 76.4874 90.22 76.1888 90.22C75.8341 90.22 75.5448 90.0427 75.3208 89.688C75.0968 89.3147 74.9661 88.9413 74.9288 88.568C74.8728 88.1947 74.8448 87.6627 74.8448 86.972C74.8448 86.2627 74.8541 85.5253 74.8728 84.76C74.9101 83.9947 74.9474 83.2573 74.9848 82.548C75.0221 81.8387 75.0594 81.2787 75.0968 80.868C75.1341 80.42 75.2368 80.0933 75.4048 79.888C75.5914 79.6827 75.7688 79.5893 75.9368 79.608C76.3101 79.6453 76.5528 79.7573 76.6648 79.944C76.7954 80.112 76.8701 80.3267 76.8888 80.588C77.5608 81.0733 78.1768 81.596 78.7368 82.156C79.3154 82.716 79.8381 83.2853 80.3048 83.864C80.7901 84.4427 81.2288 85.0213 81.6208 85.6C82.0314 86.16 82.4141 86.6733 82.7688 87.14C82.9928 86.02 83.1701 84.7693 83.3008 83.388C83.4501 82.0067 83.5994 80.56 83.7488 79.048C83.7301 78.8613 83.8421 78.684 84.0848 78.516C84.3274 78.3293 84.5514 78.2453 84.7568 78.264C85.2794 78.3013 85.5408 78.5627 85.5408 79.048ZM92.875 88.12C92.8937 88.1947 92.903 88.3067 92.903 88.456C92.903 88.5867 92.875 88.7267 92.819 88.876C92.763 89.0067 92.679 89.128 92.567 89.24C92.4737 89.3333 92.3337 89.38 92.147 89.38C91.7364 89.1187 91.391 88.7733 91.111 88.344C90.9617 87.784 90.8217 87.14 90.691 86.412C90.579 85.684 90.4857 84.928 90.411 84.144C90.3364 83.3413 90.2804 82.5293 90.243 81.708C90.2244 80.8867 90.2244 80.0933 90.243 79.328C90.243 79.1973 90.2524 79.0293 90.271 78.824C90.3084 78.6187 90.3644 78.4227 90.439 78.236C90.5137 78.0307 90.607 77.8627 90.719 77.732C90.831 77.5827 90.9897 77.508 91.195 77.508C91.4377 77.508 91.6337 77.5827 91.783 77.732C91.9324 77.8813 92.007 78.124 92.007 78.46C91.9884 79.2067 91.9884 80.0093 92.007 80.868C92.0444 81.708 92.1004 82.5573 92.175 83.416C92.2497 84.2747 92.343 85.1147 92.455 85.936C92.5857 86.7387 92.7257 87.4667 92.875 88.12ZM104.83 78.572C104.755 78.6653 104.615 78.74 104.41 78.796C104.223 78.8333 104.027 78.7773 103.822 78.628C103.673 78.516 103.495 78.404 103.29 78.292C103.085 78.1613 102.861 78.04 102.618 77.928C102.375 77.816 102.133 77.7227 101.89 77.648C101.647 77.5733 101.414 77.536 101.19 77.536C100.91 77.536 100.611 77.6013 100.294 77.732C99.9953 77.8627 99.7339 78.0493 99.5099 78.292C99.0806 78.7587 98.9219 79.216 99.0339 79.664C99.1646 80.0933 99.4913 80.4947 100.014 80.868C100.35 81.1107 100.714 81.3627 101.106 81.624C101.498 81.8667 101.881 82.1093 102.254 82.352C102.646 82.5947 103.01 82.828 103.346 83.052C103.701 83.276 104.009 83.472 104.27 83.64C104.606 83.864 104.923 84.1067 105.222 84.368C105.521 84.6293 105.782 84.928 106.006 85.264C106.23 85.5813 106.407 85.9453 106.538 86.356C106.669 86.7667 106.734 87.2333 106.734 87.756C106.603 88.7827 106.193 89.604 105.502 90.22C104.83 90.8173 104.046 91.2 103.15 91.368C102.366 91.5173 101.591 91.4893 100.826 91.284C100.079 91.0787 99.4446 90.6867 98.9219 90.108C98.7913 89.9587 98.6793 89.7533 98.5859 89.492C98.4926 89.2307 98.4833 89.044 98.5579 88.932C98.6699 88.764 98.8659 88.652 99.1459 88.596C99.4259 88.5213 99.6406 88.5307 99.7899 88.624C100.219 89.016 100.723 89.3053 101.302 89.492C101.881 89.66 102.487 89.6693 103.122 89.52C103.607 89.408 103.999 89.2027 104.298 88.904C104.597 88.5867 104.783 88.232 104.858 87.84C104.951 87.4293 104.895 87.0093 104.69 86.58C104.503 86.132 104.158 85.7307 103.654 85.376C102.889 84.7973 102.067 84.256 101.19 83.752C100.331 83.248 99.4539 82.6693 98.5579 82.016C98.1286 81.6427 97.8113 81.232 97.6059 80.784C97.4193 80.336 97.3259 79.8973 97.3259 79.468C97.3259 79.02 97.4193 78.6 97.6059 78.208C97.7926 77.7973 98.0539 77.4333 98.3899 77.116C98.7259 76.78 99.1179 76.5093 99.5659 76.304C100.014 76.0987 100.509 75.9773 101.05 75.94C101.797 75.9027 102.515 76.0613 103.206 76.416C103.897 76.752 104.457 77.172 104.886 77.676C104.979 77.788 105.017 77.928 104.998 78.096C104.998 78.264 104.942 78.4227 104.83 78.572ZM120.326 79.356C120.587 80.868 120.783 82.38 120.914 83.892C121.044 85.3853 121.147 86.8787 121.222 88.372C121.24 88.54 121.222 88.6893 121.166 88.82C121.11 88.932 121.035 89.0347 120.942 89.128C120.867 89.2213 120.783 89.296 120.69 89.352C120.615 89.408 120.55 89.436 120.494 89.436C120.288 89.436 120.083 89.3427 119.878 89.156C119.691 88.9507 119.579 88.6893 119.542 88.372C119.486 87.6627 119.43 86.9533 119.374 86.244C119.318 85.5347 119.252 84.8253 119.178 84.116C117.218 84.6573 115.146 85.1333 112.962 85.544C113.036 85.9547 113.111 86.3653 113.186 86.776C113.26 87.1867 113.344 87.5973 113.438 88.008C113.456 88.0827 113.466 88.204 113.466 88.372C113.484 88.54 113.475 88.7173 113.438 88.904C113.419 89.0907 113.363 89.268 113.27 89.436C113.195 89.5853 113.074 89.6973 112.906 89.772C112.756 89.7907 112.598 89.744 112.43 89.632C112.262 89.52 112.15 89.408 112.094 89.296C111.87 88.7173 111.655 88.0267 111.45 87.224C111.263 86.4213 111.095 85.5813 110.946 84.704C110.815 83.808 110.722 82.9027 110.666 81.988C110.61 81.0733 110.6 80.196 110.638 79.356C110.675 79.076 110.778 78.88 110.946 78.768C111.132 78.6373 111.3 78.572 111.45 78.572C111.618 78.572 111.758 78.628 111.87 78.74C112 78.852 112.103 78.992 112.178 79.16C112.252 79.328 112.308 79.496 112.346 79.664C112.383 79.832 112.402 79.972 112.402 80.084C112.42 80.6813 112.448 81.2693 112.486 81.848C112.523 82.4267 112.588 83.0053 112.682 83.584C113.634 83.4533 114.67 83.276 115.79 83.052C116.91 82.8093 117.964 82.5387 118.954 82.24C118.916 81.8107 118.87 81.3813 118.814 80.952C118.758 80.504 118.702 80.0653 118.646 79.636C118.646 79.3187 118.739 79.0387 118.926 78.796C119.131 78.5533 119.336 78.432 119.542 78.432C119.691 78.432 119.84 78.5067 119.99 78.656C120.158 78.8053 120.27 79.0387 120.326 79.356ZM133.49 84.76C133.49 84.8533 133.387 84.9467 133.182 85.04C132.995 85.1333 132.818 85.18 132.65 85.18C131.418 85.1987 130.251 85.2453 129.15 85.32C128.048 85.3947 126.975 85.488 125.93 85.6C125.724 85.6187 125.538 85.5533 125.37 85.404C125.22 85.2547 125.127 85.0773 125.09 84.872C125.052 84.6853 125.062 84.4987 125.118 84.312C125.192 84.1067 125.323 83.976 125.51 83.92C126.574 83.7147 127.722 83.556 128.954 83.444C130.186 83.332 131.418 83.3507 132.65 83.5C132.724 83.5187 132.818 83.5653 132.93 83.64C133.042 83.696 133.144 83.78 133.238 83.892C133.331 83.9853 133.406 84.1067 133.462 84.256C133.518 84.4053 133.527 84.5733 133.49 84.76Z" fill="black"/>
<path d="M2.8 68V16.55H12.39L16.52 43.22L16.87 45.95H17.01L17.36 43.22L21.49 16.55H31.08V68H24.08V33.49H23.66L23.38 35.66L18.9 68H14.98L10.5 35.66L10.22 33.49H9.8V68H2.8ZM38.2813 68L46.0513 16.55H55.2913L63.0613 68H55.7113L54.3113 57.5H47.0313L45.6313 68H38.2813ZM48.0813 49.52H53.2613L51.0913 32.23L50.8813 29.5H50.4613L50.2513 32.23L48.0813 49.52ZM70.2133 68V16.55H79.8033L83.9333 43.22L84.2833 45.95H84.4233L84.7733 43.22L88.9033 16.55H98.4933V68H91.4933V33.49H91.0733L90.7933 35.66L86.3133 68H82.3933L77.9133 35.66L77.6333 33.49H77.2133V68H70.2133ZM107.27 68V16.55H114.97C117.583 16.55 119.835 17.0167 121.725 17.95C123.638 18.86 125.108 20.295 126.135 22.255C127.185 24.215 127.71 26.7467 127.71 29.85C127.71 32.3233 127.383 34.4817 126.73 36.325C126.1 38.1683 124.863 39.6733 123.02 40.84C124.886 41.8667 126.228 43.5 127.045 45.74C127.861 47.9567 128.27 50.5233 128.27 53.44C128.27 56.31 127.803 58.8417 126.87 61.035C125.96 63.2283 124.606 64.9433 122.81 66.18C121.036 67.3933 118.843 68 116.23 68H107.27ZM114.83 60.51C117.116 60.51 118.621 59.8333 119.345 58.48C120.068 57.1033 120.43 55.1433 120.43 52.6C120.43 50.01 120.068 48.05 119.345 46.72C118.621 45.3667 117.116 44.69 114.83 44.69V60.51ZM114.83 37.76C116.953 37.76 118.411 37.1767 119.205 36.01C120.021 34.8433 120.43 33.1167 120.43 30.83C120.43 28.52 120.01 26.8167 119.17 25.72C118.353 24.6 116.906 24.04 114.83 24.04V37.76ZM145.648 68.56C143.548 68.56 141.739 68.07 140.223 67.09C138.729 66.11 137.574 64.78 136.758 63.1C135.964 61.42 135.568 59.53 135.568 57.43V27.12C135.568 24.9967 135.964 23.1067 136.758 21.45C137.574 19.77 138.729 18.44 140.223 17.46C141.739 16.48 143.548 15.99 145.648 15.99C147.748 15.99 149.544 16.48 151.038 17.46C152.554 18.44 153.709 19.77 154.503 21.45C155.319 23.13 155.728 25.02 155.728 27.12V57.43C155.728 59.53 155.319 61.42 154.503 63.1C153.709 64.78 152.554 66.11 151.038 67.09C149.544 68.07 147.748 68.56 145.648 68.56ZM145.648 61.21C146.581 61.21 147.234 60.825 147.608 60.055C147.981 59.2617 148.168 58.3867 148.168 57.43V27.12C148.168 26.1633 147.969 25.3 147.573 24.53C147.176 23.7367 146.534 23.34 145.648 23.34C144.784 23.34 144.143 23.7367 143.723 24.53C143.326 25.3 143.128 26.1633 143.128 27.12V57.43C143.128 58.3867 143.326 59.2617 143.723 60.055C144.119 60.825 144.761 61.21 145.648 61.21Z" fill="black"/>
</svg>
