<svg width="220" height="103" viewBox="0 0 220 103" fill="none" xmlns="http://www.w3.org/2000/svg">
<path d="M47.9994 7.95337C50.9993 -1.54718 46.9995 -1.85906 41.9995 3.45339C36.9995 8.76583 7.99973 35.9535 3.9996 39.9534C0.17521 43.7776 -1.99949 47.4529 8.00001 51.9534C20.5 57.5792 13.8885 70.3995 9 89.9534C6.5 99.9534 7 105.453 13 99.9534C19 94.4534 46.9999 66.9534 50 63.9534C53.0001 60.9534 55.5 53.8911 48.9995 51.4538C34.4994 46.0171 40.7369 30.9534 47.9994 7.95337Z" fill="#FFCD3C"/>
<path d="M90.38 84.76C90.38 84.8533 90.2773 84.9467 90.072 85.04C89.8853 85.1333 89.708 85.18 89.54 85.18C88.308 85.1987 87.1413 85.2453 86.04 85.32C84.9387 85.3947 83.8653 85.488 82.82 85.6C82.6147 85.6187 82.428 85.5533 82.26 85.404C82.1107 85.2547 82.0173 85.0773 81.98 84.872C81.9427 84.6853 81.952 84.4987 82.008 84.312C82.0827 84.1067 82.2133 83.976 82.4 83.92C83.464 83.7147 84.612 83.556 85.844 83.444C87.076 83.332 88.308 83.3507 89.54 83.5C89.6147 83.5187 89.708 83.5653 89.82 83.64C89.932 83.696 90.0347 83.78 90.128 83.892C90.2213 83.9853 90.296 84.1067 90.352 84.256C90.408 84.4053 90.4173 84.5733 90.38 84.76ZM101.807 78.572C101.733 78.6653 101.593 78.74 101.387 78.796C101.201 78.8333 101.005 78.7773 100.799 78.628C100.65 78.516 100.473 78.404 100.267 78.292C100.062 78.1613 99.8379 78.04 99.5953 77.928C99.3526 77.816 99.1099 77.7227 98.8673 77.648C98.6246 77.5733 98.3913 77.536 98.1673 77.536C97.8873 77.536 97.5886 77.6013 97.2713 77.732C96.9726 77.8627 96.7113 78.0493 96.4873 78.292C96.0579 78.7587 95.8993 79.216 96.0113 79.664C96.1419 80.0933 96.4686 80.4947 96.9913 80.868C97.3273 81.1107 97.6913 81.3627 98.0833 81.624C98.4753 81.8667 98.8579 82.1093 99.2313 82.352C99.6233 82.5947 99.9873 82.828 100.323 83.052C100.678 83.276 100.986 83.472 101.247 83.64C101.583 83.864 101.901 84.1067 102.199 84.368C102.498 84.6293 102.759 84.928 102.983 85.264C103.207 85.5813 103.385 85.9453 103.515 86.356C103.646 86.7667 103.711 87.2333 103.711 87.756C103.581 88.7827 103.17 89.604 102.479 90.22C101.807 90.8173 101.023 91.2 100.127 91.368C99.3433 91.5173 98.5686 91.4893 97.8033 91.284C97.0566 91.0787 96.4219 90.6867 95.8993 90.108C95.7686 89.9587 95.6566 89.7533 95.5633 89.492C95.4699 89.2307 95.4606 89.044 95.5353 88.932C95.6473 88.764 95.8433 88.652 96.1233 88.596C96.4033 88.5213 96.6179 88.5307 96.7673 88.624C97.1966 89.016 97.7006 89.3053 98.2793 89.492C98.8579 89.66 99.4646 89.6693 100.099 89.52C100.585 89.408 100.977 89.2027 101.275 88.904C101.574 88.5867 101.761 88.232 101.835 87.84C101.929 87.4293 101.873 87.0093 101.667 86.58C101.481 86.132 101.135 85.7307 100.631 85.376C99.8659 84.7973 99.0446 84.256 98.1673 83.752C97.3086 83.248 96.4313 82.6693 95.5353 82.016C95.1059 81.6427 94.7886 81.232 94.5833 80.784C94.3966 80.336 94.3033 79.8973 94.3033 79.468C94.3033 79.02 94.3966 78.6 94.5833 78.208C94.7699 77.7973 95.0313 77.4333 95.3673 77.116C95.7033 76.78 96.0953 76.5093 96.5433 76.304C96.9913 76.0987 97.4859 75.9773 98.0273 75.94C98.7739 75.9027 99.4926 76.0613 100.183 76.416C100.874 76.752 101.434 77.172 101.863 77.676C101.957 77.788 101.994 77.928 101.975 78.096C101.975 78.264 101.919 78.4227 101.807 78.572ZM112.235 90.556C112.216 90.7613 112.151 90.9573 112.039 91.144C111.946 91.312 111.796 91.3867 111.591 91.368C111.274 91.3493 110.994 91.228 110.751 91.004C110.527 90.78 110.415 90.5933 110.415 90.444C110.434 88.82 110.378 87.168 110.247 85.488C110.135 83.7893 109.948 82.1 109.687 80.42C109.687 80.3453 109.706 80.2613 109.743 80.168C109.78 80.0933 109.827 80.0093 109.883 79.916C109.939 79.804 110.032 79.7013 110.163 79.608C110.294 79.552 110.434 79.5613 110.583 79.636C110.751 79.7107 110.91 79.8227 111.059 79.972C111.208 80.1213 111.339 80.2893 111.451 80.476C111.563 80.6627 111.647 80.84 111.703 81.008C111.759 81.3813 111.815 81.792 111.871 82.24C111.927 82.688 111.974 83.1547 112.011 83.64C112.459 83.3973 112.888 83.1267 113.299 82.828C113.71 82.5293 114.064 82.2027 114.363 81.848C114.68 81.4933 114.923 81.1293 115.091 80.756C115.259 80.364 115.315 79.9627 115.259 79.552C115.222 79.2347 115.082 78.9453 114.839 78.684C114.596 78.4227 114.223 78.2267 113.719 78.096C112.562 77.8347 111.526 77.8253 110.611 78.068C109.696 78.292 108.819 78.6747 107.979 79.216C107.736 79.4027 107.512 79.5147 107.307 79.552C107.102 79.5893 106.924 79.58 106.775 79.524C106.626 79.468 106.514 79.384 106.439 79.272C106.364 79.16 106.327 79.048 106.327 78.936C106.364 78.5067 106.57 78.124 106.943 77.788C107.335 77.4333 107.746 77.1347 108.175 76.892C108.735 76.612 109.426 76.3787 110.247 76.192C111.068 76.0053 111.89 75.94 112.711 75.996C113.551 76.0333 114.335 76.2293 115.063 76.584C115.791 76.9387 116.351 77.508 116.743 78.292C117.098 79.2253 117.172 80.0653 116.967 80.812C116.78 81.5587 116.435 82.24 115.931 82.856C115.427 83.472 114.83 84.0413 114.139 84.564C113.448 85.068 112.795 85.5347 112.179 85.964C112.216 86.7853 112.235 87.588 112.235 88.372C112.254 89.156 112.254 89.884 112.235 90.556ZM122.182 90.528C122.089 90.8453 121.967 91.1347 121.818 91.396C121.669 91.6387 121.51 91.7787 121.342 91.816C120.987 91.9093 120.717 91.8533 120.53 91.648C120.343 91.4427 120.269 91.1813 120.306 90.864C120.455 89.744 120.698 88.568 121.034 87.336C121.37 86.0853 121.762 84.844 122.21 83.612C122.658 82.3613 123.143 81.1573 123.666 80C124.207 78.824 124.758 77.76 125.318 76.808C125.411 76.6587 125.514 76.5747 125.626 76.556C125.757 76.5187 125.869 76.5187 125.962 76.556C126.055 76.4813 126.167 76.416 126.298 76.36C126.429 76.304 126.559 76.276 126.69 76.276C126.746 76.276 126.802 76.2853 126.858 76.304C126.933 76.3227 127.007 76.3787 127.082 76.472C127.157 76.5653 127.241 76.7053 127.334 76.892C127.446 77.06 127.577 77.312 127.726 77.648C127.987 78.6 128.286 79.58 128.622 80.588C128.977 81.596 129.341 82.604 129.714 83.612C129.77 83.5933 129.817 83.584 129.854 83.584C129.91 83.5653 129.966 83.5467 130.022 83.528C130.227 83.5093 130.461 83.5187 130.722 83.556C130.983 83.5933 131.161 83.724 131.254 83.948C131.366 84.228 131.347 84.4707 131.198 84.676C131.049 84.8813 130.778 85.0867 130.386 85.292C130.629 85.8893 130.871 86.4773 131.114 87.056C131.357 87.616 131.609 88.1667 131.87 88.708C131.889 88.8013 131.917 88.9507 131.954 89.156C131.991 89.3427 132.01 89.5387 132.01 89.744C132.029 89.9307 132.019 90.108 131.982 90.276C131.945 90.444 131.87 90.556 131.758 90.612C131.627 90.668 131.487 90.6587 131.338 90.584C131.207 90.5093 131.077 90.416 130.946 90.304C130.815 90.1733 130.694 90.0427 130.582 89.912C130.489 89.7627 130.414 89.632 130.358 89.52C130.041 88.904 129.733 88.288 129.434 87.672C129.154 87.0373 128.883 86.4027 128.622 85.768C127.838 85.9173 126.979 86.048 126.046 86.16C125.131 86.272 124.226 86.3467 123.33 86.384C123.125 87.0933 122.919 87.7933 122.714 88.484C122.527 89.156 122.35 89.8373 122.182 90.528ZM126.158 78.768C125.299 80.6907 124.553 82.6133 123.918 84.536C125.169 84.4987 126.503 84.34 127.922 84.06C127.25 82.3613 126.662 80.5973 126.158 78.768ZM146.541 79.048C146.41 80.6347 146.251 82.2587 146.065 83.92C145.897 85.5627 145.663 87.112 145.365 88.568C145.29 88.9227 145.187 89.1747 145.057 89.324C144.926 89.4733 144.739 89.576 144.497 89.632C144.291 89.6693 144.002 89.604 143.629 89.436C143.274 89.268 142.975 89.0253 142.733 88.708C142.415 88.2787 142.07 87.812 141.697 87.308C141.342 86.7853 140.95 86.2627 140.521 85.74C140.11 85.1987 139.671 84.6667 139.205 84.144C138.757 83.6213 138.281 83.136 137.777 82.688C137.721 83.92 137.674 85.1427 137.637 86.356C137.599 87.5507 137.599 88.7547 137.637 89.968C137.637 90.136 137.487 90.22 137.189 90.22C136.834 90.22 136.545 90.0427 136.321 89.688C136.097 89.3147 135.966 88.9413 135.929 88.568C135.873 88.1947 135.845 87.6627 135.845 86.972C135.845 86.2627 135.854 85.5253 135.873 84.76C135.91 83.9947 135.947 83.2573 135.985 82.548C136.022 81.8387 136.059 81.2787 136.097 80.868C136.134 80.42 136.237 80.0933 136.405 79.888C136.591 79.6827 136.769 79.5893 136.937 79.608C137.31 79.6453 137.553 79.7573 137.665 79.944C137.795 80.112 137.87 80.3267 137.889 80.588C138.561 81.0733 139.177 81.596 139.737 82.156C140.315 82.716 140.838 83.2853 141.305 83.864C141.79 84.4427 142.229 85.0213 142.621 85.6C143.031 86.16 143.414 86.6733 143.769 87.14C143.993 86.02 144.17 84.7693 144.301 83.388C144.45 82.0067 144.599 80.56 144.749 79.048C144.73 78.8613 144.842 78.684 145.085 78.516C145.327 78.3293 145.551 78.2453 145.757 78.264C146.279 78.3013 146.541 78.5627 146.541 79.048ZM153.875 88.12C153.894 88.1947 153.903 88.3067 153.903 88.456C153.903 88.5867 153.875 88.7267 153.819 88.876C153.763 89.0067 153.679 89.128 153.567 89.24C153.474 89.3333 153.334 89.38 153.147 89.38C152.736 89.1187 152.391 88.7733 152.111 88.344C151.962 87.784 151.822 87.14 151.691 86.412C151.579 85.684 151.486 84.928 151.411 84.144C151.336 83.3413 151.28 82.5293 151.243 81.708C151.224 80.8867 151.224 80.0933 151.243 79.328C151.243 79.1973 151.252 79.0293 151.271 78.824C151.308 78.6187 151.364 78.4227 151.439 78.236C151.514 78.0307 151.607 77.8627 151.719 77.732C151.831 77.5827 151.99 77.508 152.195 77.508C152.438 77.508 152.634 77.5827 152.783 77.732C152.932 77.8813 153.007 78.124 153.007 78.46C152.988 79.2067 152.988 80.0093 153.007 80.868C153.044 81.708 153.1 82.5573 153.175 83.416C153.25 84.2747 153.343 85.1147 153.455 85.936C153.586 86.7387 153.726 87.4667 153.875 88.12ZM165.83 78.572C165.755 78.6653 165.615 78.74 165.41 78.796C165.223 78.8333 165.027 78.7773 164.822 78.628C164.673 78.516 164.495 78.404 164.29 78.292C164.085 78.1613 163.861 78.04 163.618 77.928C163.375 77.816 163.133 77.7227 162.89 77.648C162.647 77.5733 162.414 77.536 162.19 77.536C161.91 77.536 161.611 77.6013 161.294 77.732C160.995 77.8627 160.734 78.0493 160.51 78.292C160.081 78.7587 159.922 79.216 160.034 79.664C160.165 80.0933 160.491 80.4947 161.014 80.868C161.35 81.1107 161.714 81.3627 162.106 81.624C162.498 81.8667 162.881 82.1093 163.254 82.352C163.646 82.5947 164.01 82.828 164.346 83.052C164.701 83.276 165.009 83.472 165.27 83.64C165.606 83.864 165.923 84.1067 166.222 84.368C166.521 84.6293 166.782 84.928 167.006 85.264C167.23 85.5813 167.407 85.9453 167.538 86.356C167.669 86.7667 167.734 87.2333 167.734 87.756C167.603 88.7827 167.193 89.604 166.502 90.22C165.83 90.8173 165.046 91.2 164.15 91.368C163.366 91.5173 162.591 91.4893 161.826 91.284C161.079 91.0787 160.445 90.6867 159.922 90.108C159.791 89.9587 159.679 89.7533 159.586 89.492C159.493 89.2307 159.483 89.044 159.558 88.932C159.67 88.764 159.866 88.652 160.146 88.596C160.426 88.5213 160.641 88.5307 160.79 88.624C161.219 89.016 161.723 89.3053 162.302 89.492C162.881 89.66 163.487 89.6693 164.122 89.52C164.607 89.408 164.999 89.2027 165.298 88.904C165.597 88.5867 165.783 88.232 165.858 87.84C165.951 87.4293 165.895 87.0093 165.69 86.58C165.503 86.132 165.158 85.7307 164.654 85.376C163.889 84.7973 163.067 84.256 162.19 83.752C161.331 83.248 160.454 82.6693 159.558 82.016C159.129 81.6427 158.811 81.232 158.606 80.784C158.419 80.336 158.326 79.8973 158.326 79.468C158.326 79.02 158.419 78.6 158.606 78.208C158.793 77.7973 159.054 77.4333 159.39 77.116C159.726 76.78 160.118 76.5093 160.566 76.304C161.014 76.0987 161.509 75.9773 162.05 75.94C162.797 75.9027 163.515 76.0613 164.206 76.416C164.897 76.752 165.457 77.172 165.886 77.676C165.979 77.788 166.017 77.928 165.998 78.096C165.998 78.264 165.942 78.4227 165.83 78.572ZM181.326 79.356C181.587 80.868 181.783 82.38 181.914 83.892C182.044 85.3853 182.147 86.8787 182.222 88.372C182.24 88.54 182.222 88.6893 182.166 88.82C182.11 88.932 182.035 89.0347 181.942 89.128C181.867 89.2213 181.783 89.296 181.69 89.352C181.615 89.408 181.55 89.436 181.494 89.436C181.288 89.436 181.083 89.3427 180.878 89.156C180.691 88.9507 180.579 88.6893 180.542 88.372C180.486 87.6627 180.43 86.9533 180.374 86.244C180.318 85.5347 180.252 84.8253 180.178 84.116C178.218 84.6573 176.146 85.1333 173.962 85.544C174.036 85.9547 174.111 86.3653 174.186 86.776C174.26 87.1867 174.344 87.5973 174.438 88.008C174.456 88.0827 174.466 88.204 174.466 88.372C174.484 88.54 174.475 88.7173 174.438 88.904C174.419 89.0907 174.363 89.268 174.27 89.436C174.195 89.5853 174.074 89.6973 173.906 89.772C173.756 89.7907 173.598 89.744 173.43 89.632C173.262 89.52 173.15 89.408 173.094 89.296C172.87 88.7173 172.655 88.0267 172.45 87.224C172.263 86.4213 172.095 85.5813 171.946 84.704C171.815 83.808 171.722 82.9027 171.666 81.988C171.61 81.0733 171.6 80.196 171.638 79.356C171.675 79.076 171.778 78.88 171.946 78.768C172.132 78.6373 172.3 78.572 172.45 78.572C172.618 78.572 172.758 78.628 172.87 78.74C173 78.852 173.103 78.992 173.178 79.16C173.252 79.328 173.308 79.496 173.346 79.664C173.383 79.832 173.402 79.972 173.402 80.084C173.42 80.6813 173.448 81.2693 173.486 81.848C173.523 82.4267 173.588 83.0053 173.682 83.584C174.634 83.4533 175.67 83.276 176.79 83.052C177.91 82.8093 178.964 82.5387 179.954 82.24C179.916 81.8107 179.87 81.3813 179.814 80.952C179.758 80.504 179.702 80.0653 179.646 79.636C179.646 79.3187 179.739 79.0387 179.926 78.796C180.131 78.5533 180.336 78.432 180.542 78.432C180.691 78.432 180.84 78.5067 180.99 78.656C181.158 78.8053 181.27 79.0387 181.326 79.356ZM194.49 84.76C194.49 84.8533 194.387 84.9467 194.182 85.04C193.995 85.1333 193.818 85.18 193.65 85.18C192.418 85.1987 191.251 85.2453 190.15 85.32C189.048 85.3947 187.975 85.488 186.93 85.6C186.724 85.6187 186.538 85.5533 186.37 85.404C186.22 85.2547 186.127 85.0773 186.09 84.872C186.052 84.6853 186.062 84.4987 186.118 84.312C186.192 84.1067 186.323 83.976 186.51 83.92C187.574 83.7147 188.722 83.556 189.954 83.444C191.186 83.332 192.418 83.3507 193.65 83.5C193.724 83.5187 193.818 83.5653 193.93 83.64C194.042 83.696 194.144 83.78 194.238 83.892C194.331 83.9853 194.406 84.1067 194.462 84.256C194.518 84.4053 194.527 84.5733 194.49 84.76Z" fill="black"/>
<path d="M63.8 68V16.55H73.39L77.52 43.22L77.87 45.95H78.01L78.36 43.22L82.49 16.55H92.08V68H85.08V33.49H84.66L84.38 35.66L79.9 68H75.98L71.5 35.66L71.22 33.49H70.8V68H63.8ZM99.2813 68L107.051 16.55H116.291L124.061 68H116.711L115.311 57.5H108.031L106.631 68H99.2813ZM109.081 49.52H114.261L112.091 32.23L111.881 29.5H111.461L111.251 32.23L109.081 49.52ZM131.213 68V16.55H140.803L144.933 43.22L145.283 45.95H145.423L145.773 43.22L149.903 16.55H159.493V68H152.493V33.49H152.073L151.793 35.66L147.313 68H143.393L138.913 35.66L138.633 33.49H138.213V68H131.213ZM168.27 68V16.55H175.97C178.583 16.55 180.835 17.0167 182.725 17.95C184.638 18.86 186.108 20.295 187.135 22.255C188.185 24.215 188.71 26.7467 188.71 29.85C188.71 32.3233 188.383 34.4817 187.73 36.325C187.1 38.1683 185.863 39.6733 184.02 40.84C185.886 41.8667 187.228 43.5 188.045 45.74C188.861 47.9567 189.27 50.5233 189.27 53.44C189.27 56.31 188.803 58.8417 187.87 61.035C186.96 63.2283 185.606 64.9433 183.81 66.18C182.036 67.3933 179.843 68 177.23 68H168.27ZM175.83 60.51C178.116 60.51 179.621 59.8333 180.345 58.48C181.068 57.1033 181.43 55.1433 181.43 52.6C181.43 50.01 181.068 48.05 180.345 46.72C179.621 45.3667 178.116 44.69 175.83 44.69V60.51ZM175.83 37.76C177.953 37.76 179.411 37.1767 180.205 36.01C181.021 34.8433 181.43 33.1167 181.43 30.83C181.43 28.52 181.01 26.8167 180.17 25.72C179.353 24.6 177.906 24.04 175.83 24.04V37.76ZM206.648 68.56C204.548 68.56 202.739 68.07 201.223 67.09C199.729 66.11 198.574 64.78 197.758 63.1C196.964 61.42 196.568 59.53 196.568 57.43V27.12C196.568 24.9967 196.964 23.1067 197.758 21.45C198.574 19.77 199.729 18.44 201.223 17.46C202.739 16.48 204.548 15.99 206.648 15.99C208.748 15.99 210.544 16.48 212.038 17.46C213.554 18.44 214.709 19.77 215.503 21.45C216.319 23.13 216.728 25.02 216.728 27.12V57.43C216.728 59.53 216.319 61.42 215.503 63.1C214.709 64.78 213.554 66.11 212.038 67.09C210.544 68.07 208.748 68.56 206.648 68.56ZM206.648 61.21C207.581 61.21 208.234 60.825 208.608 60.055C208.981 59.2617 209.168 58.3867 209.168 57.43V27.12C209.168 26.1633 208.969 25.3 208.573 24.53C208.176 23.7367 207.534 23.34 206.648 23.34C205.784 23.34 205.143 23.7367 204.723 24.53C204.326 25.3 204.128 26.1633 204.128 27.12V57.43C204.128 58.3867 204.326 59.2617 204.723 60.055C205.119 60.825 205.761 61.21 206.648 61.21Z" fill="black"/>
</svg>
