<svg width="207" height="103" viewBox="0 0 207 103" fill="none" xmlns="http://www.w3.org/2000/svg">
<path d="M34.3049 21.8406C36.4849 14.8638 33.5783 14.6348 29.9448 18.536C26.3113 22.4372 5.23723 42.4025 2.33034 45.3399C-0.448835 48.1482 -2.02919 50.8472 5.23743 54.1521C14.3212 58.2835 9.51657 67.6981 5.96412 82.0575C4.14738 89.4011 4.51073 93.44 8.87092 89.4011C13.2311 85.3621 33.5786 65.1674 35.7588 62.9644C37.9389 60.7613 39.7556 55.5751 35.0317 53.7853C24.4945 49.7928 29.0273 38.7307 34.3049 21.8406Z" fill="#FFCD3C"/>
<path d="M77.38 84.76C77.38 84.8533 77.2773 84.9467 77.072 85.04C76.8853 85.1333 76.708 85.18 76.54 85.18C75.308 85.1987 74.1413 85.2453 73.04 85.32C71.9387 85.3947 70.8653 85.488 69.82 85.6C69.6147 85.6187 69.428 85.5533 69.26 85.404C69.1107 85.2547 69.0173 85.0773 68.98 84.872C68.9427 84.6853 68.952 84.4987 69.008 84.312C69.0827 84.1067 69.2133 83.976 69.4 83.92C70.464 83.7147 71.612 83.556 72.844 83.444C74.076 83.332 75.308 83.3507 76.54 83.5C76.6147 83.5187 76.708 83.5653 76.82 83.64C76.932 83.696 77.0347 83.78 77.128 83.892C77.2213 83.9853 77.296 84.1067 77.352 84.256C77.408 84.4053 77.4173 84.5733 77.38 84.76ZM88.8073 78.572C88.7326 78.6653 88.5926 78.74 88.3873 78.796C88.2006 78.8333 88.0046 78.7773 87.7993 78.628C87.6499 78.516 87.4726 78.404 87.2673 78.292C87.0619 78.1613 86.8379 78.04 86.5953 77.928C86.3526 77.816 86.1099 77.7227 85.8673 77.648C85.6246 77.5733 85.3913 77.536 85.1673 77.536C84.8873 77.536 84.5886 77.6013 84.2713 77.732C83.9726 77.8627 83.7113 78.0493 83.4873 78.292C83.0579 78.7587 82.8993 79.216 83.0113 79.664C83.1419 80.0933 83.4686 80.4947 83.9913 80.868C84.3273 81.1107 84.6913 81.3627 85.0833 81.624C85.4753 81.8667 85.8579 82.1093 86.2313 82.352C86.6233 82.5947 86.9873 82.828 87.3233 83.052C87.6779 83.276 87.9859 83.472 88.2473 83.64C88.5833 83.864 88.9006 84.1067 89.1993 84.368C89.4979 84.6293 89.7593 84.928 89.9833 85.264C90.2073 85.5813 90.3846 85.9453 90.5153 86.356C90.6459 86.7667 90.7113 87.2333 90.7113 87.756C90.5806 88.7827 90.1699 89.604 89.4793 90.22C88.8073 90.8173 88.0233 91.2 87.1273 91.368C86.3433 91.5173 85.5686 91.4893 84.8033 91.284C84.0566 91.0787 83.4219 90.6867 82.8993 90.108C82.7686 89.9587 82.6566 89.7533 82.5633 89.492C82.4699 89.2307 82.4606 89.044 82.5353 88.932C82.6473 88.764 82.8433 88.652 83.1233 88.596C83.4033 88.5213 83.6179 88.5307 83.7673 88.624C84.1966 89.016 84.7006 89.3053 85.2793 89.492C85.8579 89.66 86.4646 89.6693 87.0993 89.52C87.5846 89.408 87.9766 89.2027 88.2753 88.904C88.5739 88.5867 88.7606 88.232 88.8353 87.84C88.9286 87.4293 88.8726 87.0093 88.6673 86.58C88.4806 86.132 88.1353 85.7307 87.6313 85.376C86.8659 84.7973 86.0446 84.256 85.1673 83.752C84.3086 83.248 83.4313 82.6693 82.5353 82.016C82.1059 81.6427 81.7886 81.232 81.5833 80.784C81.3966 80.336 81.3033 79.8973 81.3033 79.468C81.3033 79.02 81.3966 78.6 81.5833 78.208C81.7699 77.7973 82.0313 77.4333 82.3673 77.116C82.7033 76.78 83.0953 76.5093 83.5433 76.304C83.9913 76.0987 84.4859 75.9773 85.0273 75.94C85.7739 75.9027 86.4926 76.0613 87.1833 76.416C87.8739 76.752 88.4339 77.172 88.8633 77.676C88.9566 77.788 88.9939 77.928 88.9753 78.096C88.9753 78.264 88.9193 78.4227 88.8073 78.572ZM99.2349 90.556C99.2162 90.7613 99.1509 90.9573 99.0389 91.144C98.9455 91.312 98.7962 91.3867 98.5909 91.368C98.2735 91.3493 97.9935 91.228 97.7509 91.004C97.5269 90.78 97.4149 90.5933 97.4149 90.444C97.4335 88.82 97.3775 87.168 97.2469 85.488C97.1349 83.7893 96.9482 82.1 96.6869 80.42C96.6869 80.3453 96.7055 80.2613 96.7429 80.168C96.7802 80.0933 96.8269 80.0093 96.8829 79.916C96.9389 79.804 97.0322 79.7013 97.1629 79.608C97.2935 79.552 97.4335 79.5613 97.5829 79.636C97.7509 79.7107 97.9095 79.8227 98.0589 79.972C98.2082 80.1213 98.3389 80.2893 98.4509 80.476C98.5629 80.6627 98.6469 80.84 98.7029 81.008C98.7589 81.3813 98.8149 81.792 98.8709 82.24C98.9269 82.688 98.9735 83.1547 99.0109 83.64C99.4589 83.3973 99.8882 83.1267 100.299 82.828C100.71 82.5293 101.064 82.2027 101.363 81.848C101.68 81.4933 101.923 81.1293 102.091 80.756C102.259 80.364 102.315 79.9627 102.259 79.552C102.222 79.2347 102.082 78.9453 101.839 78.684C101.596 78.4227 101.223 78.2267 100.719 78.096C99.5615 77.8347 98.5255 77.8253 97.6109 78.068C96.6962 78.292 95.8189 78.6747 94.9789 79.216C94.7362 79.4027 94.5122 79.5147 94.3069 79.552C94.1015 79.5893 93.9242 79.58 93.7749 79.524C93.6255 79.468 93.5135 79.384 93.4389 79.272C93.3642 79.16 93.3269 79.048 93.3269 78.936C93.3642 78.5067 93.5695 78.124 93.9429 77.788C94.3349 77.4333 94.7455 77.1347 95.1749 76.892C95.7349 76.612 96.4255 76.3787 97.2469 76.192C98.0682 76.0053 98.8895 75.94 99.7109 75.996C100.551 76.0333 101.335 76.2293 102.063 76.584C102.791 76.9387 103.351 77.508 103.743 78.292C104.098 79.2253 104.172 80.0653 103.967 80.812C103.78 81.5587 103.435 82.24 102.931 82.856C102.427 83.472 101.83 84.0413 101.139 84.564C100.448 85.068 99.7949 85.5347 99.1789 85.964C99.2162 86.7853 99.2349 87.588 99.2349 88.372C99.2535 89.156 99.2535 89.884 99.2349 90.556ZM109.182 90.528C109.089 90.8453 108.967 91.1347 108.818 91.396C108.669 91.6387 108.51 91.7787 108.342 91.816C107.987 91.9093 107.717 91.8533 107.53 91.648C107.343 91.4427 107.269 91.1813 107.306 90.864C107.455 89.744 107.698 88.568 108.034 87.336C108.37 86.0853 108.762 84.844 109.21 83.612C109.658 82.3613 110.143 81.1573 110.666 80C111.207 78.824 111.758 77.76 112.318 76.808C112.411 76.6587 112.514 76.5747 112.626 76.556C112.757 76.5187 112.869 76.5187 112.962 76.556C113.055 76.4813 113.167 76.416 113.298 76.36C113.429 76.304 113.559 76.276 113.69 76.276C113.746 76.276 113.802 76.2853 113.858 76.304C113.933 76.3227 114.007 76.3787 114.082 76.472C114.157 76.5653 114.241 76.7053 114.334 76.892C114.446 77.06 114.577 77.312 114.726 77.648C114.987 78.6 115.286 79.58 115.622 80.588C115.977 81.596 116.341 82.604 116.714 83.612C116.77 83.5933 116.817 83.584 116.854 83.584C116.91 83.5653 116.966 83.5467 117.022 83.528C117.227 83.5093 117.461 83.5187 117.722 83.556C117.983 83.5933 118.161 83.724 118.254 83.948C118.366 84.228 118.347 84.4707 118.198 84.676C118.049 84.8813 117.778 85.0867 117.386 85.292C117.629 85.8893 117.871 86.4773 118.114 87.056C118.357 87.616 118.609 88.1667 118.87 88.708C118.889 88.8013 118.917 88.9507 118.954 89.156C118.991 89.3427 119.01 89.5387 119.01 89.744C119.029 89.9307 119.019 90.108 118.982 90.276C118.945 90.444 118.87 90.556 118.758 90.612C118.627 90.668 118.487 90.6587 118.338 90.584C118.207 90.5093 118.077 90.416 117.946 90.304C117.815 90.1733 117.694 90.0427 117.582 89.912C117.489 89.7627 117.414 89.632 117.358 89.52C117.041 88.904 116.733 88.288 116.434 87.672C116.154 87.0373 115.883 86.4027 115.622 85.768C114.838 85.9173 113.979 86.048 113.046 86.16C112.131 86.272 111.226 86.3467 110.33 86.384C110.125 87.0933 109.919 87.7933 109.714 88.484C109.527 89.156 109.35 89.8373 109.182 90.528ZM113.158 78.768C112.299 80.6907 111.553 82.6133 110.918 84.536C112.169 84.4987 113.503 84.34 114.922 84.06C114.25 82.3613 113.662 80.5973 113.158 78.768ZM133.541 79.048C133.41 80.6347 133.251 82.2587 133.065 83.92C132.897 85.5627 132.663 87.112 132.365 88.568C132.29 88.9227 132.187 89.1747 132.057 89.324C131.926 89.4733 131.739 89.576 131.497 89.632C131.291 89.6693 131.002 89.604 130.629 89.436C130.274 89.268 129.975 89.0253 129.733 88.708C129.415 88.2787 129.07 87.812 128.697 87.308C128.342 86.7853 127.95 86.2627 127.521 85.74C127.11 85.1987 126.671 84.6667 126.205 84.144C125.757 83.6213 125.281 83.136 124.777 82.688C124.721 83.92 124.674 85.1427 124.637 86.356C124.599 87.5507 124.599 88.7547 124.637 89.968C124.637 90.136 124.487 90.22 124.189 90.22C123.834 90.22 123.545 90.0427 123.321 89.688C123.097 89.3147 122.966 88.9413 122.929 88.568C122.873 88.1947 122.845 87.6627 122.845 86.972C122.845 86.2627 122.854 85.5253 122.873 84.76C122.91 83.9947 122.947 83.2573 122.985 82.548C123.022 81.8387 123.059 81.2787 123.097 80.868C123.134 80.42 123.237 80.0933 123.405 79.888C123.591 79.6827 123.769 79.5893 123.937 79.608C124.31 79.6453 124.553 79.7573 124.665 79.944C124.795 80.112 124.87 80.3267 124.889 80.588C125.561 81.0733 126.177 81.596 126.737 82.156C127.315 82.716 127.838 83.2853 128.305 83.864C128.79 84.4427 129.229 85.0213 129.621 85.6C130.031 86.16 130.414 86.6733 130.769 87.14C130.993 86.02 131.17 84.7693 131.301 83.388C131.45 82.0067 131.599 80.56 131.749 79.048C131.73 78.8613 131.842 78.684 132.085 78.516C132.327 78.3293 132.551 78.2453 132.757 78.264C133.279 78.3013 133.541 78.5627 133.541 79.048ZM140.875 88.12C140.894 88.1947 140.903 88.3067 140.903 88.456C140.903 88.5867 140.875 88.7267 140.819 88.876C140.763 89.0067 140.679 89.128 140.567 89.24C140.474 89.3333 140.334 89.38 140.147 89.38C139.736 89.1187 139.391 88.7733 139.111 88.344C138.962 87.784 138.822 87.14 138.691 86.412C138.579 85.684 138.486 84.928 138.411 84.144C138.336 83.3413 138.28 82.5293 138.243 81.708C138.224 80.8867 138.224 80.0933 138.243 79.328C138.243 79.1973 138.252 79.0293 138.271 78.824C138.308 78.6187 138.364 78.4227 138.439 78.236C138.514 78.0307 138.607 77.8627 138.719 77.732C138.831 77.5827 138.99 77.508 139.195 77.508C139.438 77.508 139.634 77.5827 139.783 77.732C139.932 77.8813 140.007 78.124 140.007 78.46C139.988 79.2067 139.988 80.0093 140.007 80.868C140.044 81.708 140.1 82.5573 140.175 83.416C140.25 84.2747 140.343 85.1147 140.455 85.936C140.586 86.7387 140.726 87.4667 140.875 88.12ZM152.83 78.572C152.755 78.6653 152.615 78.74 152.41 78.796C152.223 78.8333 152.027 78.7773 151.822 78.628C151.673 78.516 151.495 78.404 151.29 78.292C151.085 78.1613 150.861 78.04 150.618 77.928C150.375 77.816 150.133 77.7227 149.89 77.648C149.647 77.5733 149.414 77.536 149.19 77.536C148.91 77.536 148.611 77.6013 148.294 77.732C147.995 77.8627 147.734 78.0493 147.51 78.292C147.081 78.7587 146.922 79.216 147.034 79.664C147.165 80.0933 147.491 80.4947 148.014 80.868C148.35 81.1107 148.714 81.3627 149.106 81.624C149.498 81.8667 149.881 82.1093 150.254 82.352C150.646 82.5947 151.01 82.828 151.346 83.052C151.701 83.276 152.009 83.472 152.27 83.64C152.606 83.864 152.923 84.1067 153.222 84.368C153.521 84.6293 153.782 84.928 154.006 85.264C154.23 85.5813 154.407 85.9453 154.538 86.356C154.669 86.7667 154.734 87.2333 154.734 87.756C154.603 88.7827 154.193 89.604 153.502 90.22C152.83 90.8173 152.046 91.2 151.15 91.368C150.366 91.5173 149.591 91.4893 148.826 91.284C148.079 91.0787 147.445 90.6867 146.922 90.108C146.791 89.9587 146.679 89.7533 146.586 89.492C146.493 89.2307 146.483 89.044 146.558 88.932C146.67 88.764 146.866 88.652 147.146 88.596C147.426 88.5213 147.641 88.5307 147.79 88.624C148.219 89.016 148.723 89.3053 149.302 89.492C149.881 89.66 150.487 89.6693 151.122 89.52C151.607 89.408 151.999 89.2027 152.298 88.904C152.597 88.5867 152.783 88.232 152.858 87.84C152.951 87.4293 152.895 87.0093 152.69 86.58C152.503 86.132 152.158 85.7307 151.654 85.376C150.889 84.7973 150.067 84.256 149.19 83.752C148.331 83.248 147.454 82.6693 146.558 82.016C146.129 81.6427 145.811 81.232 145.606 80.784C145.419 80.336 145.326 79.8973 145.326 79.468C145.326 79.02 145.419 78.6 145.606 78.208C145.793 77.7973 146.054 77.4333 146.39 77.116C146.726 76.78 147.118 76.5093 147.566 76.304C148.014 76.0987 148.509 75.9773 149.05 75.94C149.797 75.9027 150.515 76.0613 151.206 76.416C151.897 76.752 152.457 77.172 152.886 77.676C152.979 77.788 153.017 77.928 152.998 78.096C152.998 78.264 152.942 78.4227 152.83 78.572ZM168.326 79.356C168.587 80.868 168.783 82.38 168.914 83.892C169.044 85.3853 169.147 86.8787 169.222 88.372C169.24 88.54 169.222 88.6893 169.166 88.82C169.11 88.932 169.035 89.0347 168.942 89.128C168.867 89.2213 168.783 89.296 168.69 89.352C168.615 89.408 168.55 89.436 168.494 89.436C168.288 89.436 168.083 89.3427 167.878 89.156C167.691 88.9507 167.579 88.6893 167.542 88.372C167.486 87.6627 167.43 86.9533 167.374 86.244C167.318 85.5347 167.252 84.8253 167.178 84.116C165.218 84.6573 163.146 85.1333 160.962 85.544C161.036 85.9547 161.111 86.3653 161.186 86.776C161.26 87.1867 161.344 87.5973 161.438 88.008C161.456 88.0827 161.466 88.204 161.466 88.372C161.484 88.54 161.475 88.7173 161.438 88.904C161.419 89.0907 161.363 89.268 161.27 89.436C161.195 89.5853 161.074 89.6973 160.906 89.772C160.756 89.7907 160.598 89.744 160.43 89.632C160.262 89.52 160.15 89.408 160.094 89.296C159.87 88.7173 159.655 88.0267 159.45 87.224C159.263 86.4213 159.095 85.5813 158.946 84.704C158.815 83.808 158.722 82.9027 158.666 81.988C158.61 81.0733 158.6 80.196 158.638 79.356C158.675 79.076 158.778 78.88 158.946 78.768C159.132 78.6373 159.3 78.572 159.45 78.572C159.618 78.572 159.758 78.628 159.87 78.74C160 78.852 160.103 78.992 160.178 79.16C160.252 79.328 160.308 79.496 160.346 79.664C160.383 79.832 160.402 79.972 160.402 80.084C160.42 80.6813 160.448 81.2693 160.486 81.848C160.523 82.4267 160.588 83.0053 160.682 83.584C161.634 83.4533 162.67 83.276 163.79 83.052C164.91 82.8093 165.964 82.5387 166.954 82.24C166.916 81.8107 166.87 81.3813 166.814 80.952C166.758 80.504 166.702 80.0653 166.646 79.636C166.646 79.3187 166.739 79.0387 166.926 78.796C167.131 78.5533 167.336 78.432 167.542 78.432C167.691 78.432 167.84 78.5067 167.99 78.656C168.158 78.8053 168.27 79.0387 168.326 79.356ZM181.49 84.76C181.49 84.8533 181.387 84.9467 181.182 85.04C180.995 85.1333 180.818 85.18 180.65 85.18C179.418 85.1987 178.251 85.2453 177.15 85.32C176.048 85.3947 174.975 85.488 173.93 85.6C173.724 85.6187 173.538 85.5533 173.37 85.404C173.22 85.2547 173.127 85.0773 173.09 84.872C173.052 84.6853 173.062 84.4987 173.118 84.312C173.192 84.1067 173.323 83.976 173.51 83.92C174.574 83.7147 175.722 83.556 176.954 83.444C178.186 83.332 179.418 83.3507 180.65 83.5C180.724 83.5187 180.818 83.5653 180.93 83.64C181.042 83.696 181.144 83.78 181.238 83.892C181.331 83.9853 181.406 84.1067 181.462 84.256C181.518 84.4053 181.527 84.5733 181.49 84.76Z" fill="black"/>
<path d="M50.8 68V16.55H60.39L64.52 43.22L64.87 45.95H65.01L65.36 43.22L69.49 16.55H79.08V68H72.08V33.49H71.66L71.38 35.66L66.9 68H62.98L58.5 35.66L58.22 33.49H57.8V68H50.8ZM86.2813 68L94.0513 16.55H103.291L111.061 68H103.711L102.311 57.5H95.0313L93.6313 68H86.2813ZM96.0813 49.52H101.261L99.0913 32.23L98.8813 29.5H98.4613L98.2513 32.23L96.0813 49.52ZM118.213 68V16.55H127.803L131.933 43.22L132.283 45.95H132.423L132.773 43.22L136.903 16.55H146.493V68H139.493V33.49H139.073L138.793 35.66L134.313 68H130.393L125.913 35.66L125.633 33.49H125.213V68H118.213ZM155.27 68V16.55H162.97C165.583 16.55 167.835 17.0167 169.725 17.95C171.638 18.86 173.108 20.295 174.135 22.255C175.185 24.215 175.71 26.7467 175.71 29.85C175.71 32.3233 175.383 34.4817 174.73 36.325C174.1 38.1683 172.863 39.6733 171.02 40.84C172.886 41.8667 174.228 43.5 175.045 45.74C175.861 47.9567 176.27 50.5233 176.27 53.44C176.27 56.31 175.803 58.8417 174.87 61.035C173.96 63.2283 172.606 64.9433 170.81 66.18C169.036 67.3933 166.843 68 164.23 68H155.27ZM162.83 60.51C165.116 60.51 166.621 59.8333 167.345 58.48C168.068 57.1033 168.43 55.1433 168.43 52.6C168.43 50.01 168.068 48.05 167.345 46.72C166.621 45.3667 165.116 44.69 162.83 44.69V60.51ZM162.83 37.76C164.953 37.76 166.411 37.1767 167.205 36.01C168.021 34.8433 168.43 33.1167 168.43 30.83C168.43 28.52 168.01 26.8167 167.17 25.72C166.353 24.6 164.906 24.04 162.83 24.04V37.76ZM193.648 68.56C191.548 68.56 189.739 68.07 188.223 67.09C186.729 66.11 185.574 64.78 184.758 63.1C183.964 61.42 183.568 59.53 183.568 57.43V27.12C183.568 24.9967 183.964 23.1067 184.758 21.45C185.574 19.77 186.729 18.44 188.223 17.46C189.739 16.48 191.548 15.99 193.648 15.99C195.748 15.99 197.544 16.48 199.038 17.46C200.554 18.44 201.709 19.77 202.503 21.45C203.319 23.13 203.728 25.02 203.728 27.12V57.43C203.728 59.53 203.319 61.42 202.503 63.1C201.709 64.78 200.554 66.11 199.038 67.09C197.544 68.07 195.748 68.56 193.648 68.56ZM193.648 61.21C194.581 61.21 195.234 60.825 195.608 60.055C195.981 59.2617 196.168 58.3867 196.168 57.43V27.12C196.168 26.1633 195.969 25.3 195.573 24.53C195.176 23.7367 194.534 23.34 193.648 23.34C192.784 23.34 192.143 23.7367 191.723 24.53C191.326 25.3 191.128 26.1633 191.128 27.12V57.43C191.128 58.3867 191.326 59.2617 191.723 60.055C192.119 60.825 192.761 61.21 193.648 61.21Z" fill="black"/>
</svg>
