<svg width="32" height="32" viewBox="0 0 32 32" fill="none" xmlns="http://www.w3.org/2000/svg">
<rect width="32" height="32" rx="3" fill="#ADD8FF"/>
<path d="M16 7C9.934 7 4.798 10.776 3 16C4.798 21.224 9.934 25 16 25C22.066 25 27.202 21.224 29 16C27.202 10.776 22.066 7 16 7Z" fill="white"/>
<path d="M6 16C7.647 11.213 12.1 7.652 17.5 7.087C17.006 7.036 16.508 7 16 7C9.934 7 4.798 10.776 3 16C4.798 21.224 9.934 25 16 25C16.508 25 17.006 24.964 17.5 24.913C12.1 24.348 7.647 20.787 6 16Z" fill="#BBB24F"/>
<path d="M16 7C13.858 7 11.836 7.479 10.032 8.318C10.989 8.115 11.979 8 13 8C19.066 8 24.202 11.776 26 17C24.837 20.379 22.273 23.145 18.968 24.682C23.696 23.68 27.505 20.346 29 16C27.202 10.776 22.066 7 16 7Z" fill="#FBF4A5"/>
<path d="M16 7C9.934 7 4.798 10.776 3 16C4.798 21.224 9.934 25 16 25C22.066 25 27.202 21.224 29 16C27.202 10.776 22.066 7 16 7Z" stroke="#200F60" stroke-width="2" stroke-miterlimit="10" stroke-linecap="round" stroke-linejoin="round"/>
<path d="M16 21C18.7614 21 21 18.7614 21 16C21 13.2386 18.7614 11 16 11C13.2386 11 11 13.2386 11 16C11 18.7614 13.2386 21 16 21Z" fill="#4D3F80"/>
<path d="M16.312 20.494C13.551 20.494 11.312 18.255 11.312 15.494C11.312 14.61 11.561 13.792 11.964 13.071C11.364 13.896 11 14.902 11 16C11 18.761 13.239 21 16 21C17.877 21 19.493 19.953 20.348 18.423C19.439 19.673 17.976 20.494 16.312 20.494Z" fill="#200F60"/>
<path d="M16 11C14.364 11 12.925 11.797 12.012 13.012C12.848 12.385 13.875 12 15 12C17.761 12 20 14.239 20 17C20 18.125 19.615 19.152 18.988 19.988C20.203 19.075 21 17.636 21 16C21 13.239 18.761 11 16 11Z" fill="#4D3F80"/>
<path d="M17 16.5C17.8284 16.5 18.5 15.8284 18.5 15C18.5 14.1716 17.8284 13.5 17 13.5C16.1716 13.5 15.5 14.1716 15.5 15C15.5 15.8284 16.1716 16.5 17 16.5Z" fill="white"/>
</svg>
